<svg width="1200" height="900" viewBox="0 0 1200 900" fill="none" xmlns="http://www.w3.org/2000/svg">
  <defs>
    <linearGradient id="bg" x1="120" y1="90" x2="1080" y2="820" gradientUnits="userSpaceOnUse">
      <stop stop-color="#0F172A"/>
      <stop offset="0.52" stop-color="#1E293B"/>
      <stop offset="1" stop-color="#7C2D12"/>
    </linearGradient>
    <radialGradient id="glow" cx="0" cy="0" r="1" gradientUnits="userSpaceOnUse" gradientTransform="translate(710 290) rotate(90) scale(360 420)">
      <stop stop-color="#FDBA74" stop-opacity="0.75"/>
      <stop offset="1" stop-color="#FDBA74" stop-opacity="0"/>
    </radialGradient>
    <linearGradient id="plate" x1="390" y1="300" x2="810" y2="660" gradientUnits="userSpaceOnUse">
      <stop stop-color="#FFF7ED"/>
      <stop offset="1" stop-color="#E7E5E4"/>
    </linearGradient>
    <linearGradient id="food" x1="480" y1="340" x2="760" y2="610" gradientUnits="userSpaceOnUse">
      <stop stop-color="#D97706"/>
      <stop offset="1" stop-color="#065F46"/>
    </linearGradient>
  </defs>
  <rect width="1200" height="900" rx="54" fill="url(#bg)"/>
  <circle cx="930" cy="170" r="220" fill="#F59E0B" fill-opacity="0.12"/>
  <circle cx="240" cy="670" r="180" fill="#10B981" fill-opacity="0.10"/>
  <circle cx="710" cy="310" r="360" fill="url(#glow)"/>
  <path d="M180 150H1020" stroke="#FDE68A" stroke-opacity="0.16" stroke-width="2" stroke-linecap="round"/>
  <path d="M260 760H940" stroke="#FDE68A" stroke-opacity="0.12" stroke-width="2" stroke-linecap="round"/>
  <rect x="300" y="210" width="600" height="460" rx="40" fill="rgba(15,23,42,0.32)" stroke="rgba(255,255,255,0.08)"/>
  <ellipse cx="600" cy="450" rx="218" ry="210" fill="url(#plate)"/>
  <ellipse cx="600" cy="450" rx="176" ry="164" fill="#FFF7ED"/>
  <ellipse cx="600" cy="450" rx="118" ry="102" fill="url(#food)"/>
  <circle cx="544" cy="412" r="24" fill="#FCA5A5"/>
  <circle cx="654" cy="418" r="28" fill="#FDE68A"/>
  <circle cx="575" cy="495" r="19" fill="#86EFAC"/>
  <circle cx="632" cy="500" r="22" fill="#FB923C"/>
  <path d="M520 382C530 350 550 328 578 316" stroke="#FDE68A" stroke-width="12" stroke-linecap="round"/>
  <path d="M596 360C612 334 635 320 664 314" stroke="#FDE68A" stroke-width="12" stroke-linecap="round"/>
  <path d="M670 385C694 360 722 349 754 348" stroke="#FDE68A" stroke-width="12" stroke-linecap="round"/>
  <rect x="408" y="568" width="384" height="16" rx="8" fill="#FDE68A" fill-opacity="0.32"/>
  <text x="600" y="698" fill="#FFF7ED" fill-opacity="0.92" font-family="Inter, Arial, sans-serif" font-size="38" font-weight="700" text-anchor="middle">Fresh plates. Warm service.</text>
</svg>